<svg width="50" height="51" viewBox="0 0 50 51" fill="none" xmlns="http://www.w3.org/2000/svg">
<g clip-path="url(#clip0_175_385)">
<path d="M0 25.5456C0 36.2946 6.78438 45.4582 16.3042 48.9905L18.4782 25.5455L16.3042 2.10059C6.78438 5.63301 0 14.7965 0 25.5456Z" fill="#6DA544"/>
<path d="M50.0005 25.5459C50.0005 11.7389 38.8075 0.545898 25.0005 0.545898C21.9425 0.545898 19.0131 1.096 16.3047 2.10088V48.9909C19.0131 49.9959 21.9425 50.5459 25.0005 50.5459C38.8075 50.5459 50.0005 39.3529 50.0005 25.5459Z" fill="#D80027"/>
<path d="M16.304 34.2418C21.1065 34.2418 24.9996 30.3486 24.9996 25.5462C24.9996 20.7437 21.1065 16.8506 16.304 16.8506C11.5016 16.8506 7.6084 20.7437 7.6084 25.5462C7.6084 30.3486 11.5016 34.2418 16.304 34.2418Z" fill="#FFDA44"/>
<path d="M11.4131 21.1982V26.633C11.4131 29.3344 13.6029 31.5243 16.3044 31.5243C19.0059 31.5243 21.1957 29.3345 21.1957 26.633V21.1982H11.4131Z" fill="#D80027"/>
<path d="M16.3043 28.2633C15.4053 28.2633 14.6738 27.5318 14.6738 26.6328V24.459H17.9347V26.6329C17.9347 27.5318 17.2032 28.2633 16.3043 28.2633Z" fill="#F0F0F0"/>
</g>
<defs>
<clipPath id="clip0_175_385">
<rect width="50" height="50" fill="white" transform="translate(0 0.545898)"/>
</clipPath>
</defs>
</svg>
