<svg width="50" height="51" viewBox="0 0 50 51" fill="none" xmlns="http://www.w3.org/2000/svg">
<g clip-path="url(#clip0_175_385)">
<path d="M25 50.5459C38.8071 50.5459 50 39.353 50 25.5459C50 11.7388 38.8071 0.545898 25 0.545898C11.1929 0.545898 0 11.7388 0 25.5459C0 39.353 11.1929 50.5459 25 50.5459Z" fill="#F0F0F0"/>
<path d="M25 19.0237H49.1388C48.5119 16.6981 47.5592 14.5066 46.3307 12.502H25V19.0237Z" fill="#338AF3"/>
<path d="M9.4374 45.1116H40.5617C42.8433 43.2944 44.7999 41.0872 46.3302 38.5898H3.66895C5.19932 41.0871 7.15596 43.2944 9.4374 45.1116V45.1116Z" fill="#338AF3"/>
<path d="M25 0.545898V5.98066H40.5622C36.2917 2.57949 30.8837 0.545898 25 0.545898V0.545898Z" fill="#338AF3"/>
<path d="M25 19.0237H49.1388C48.5119 16.6981 47.5592 14.5066 46.3307 12.502H25V19.0237Z" fill="#338AF3"/>
<path d="M0 25.5459C0 27.8024 0.300781 29.9882 0.86123 32.0677H49.1389C49.6992 29.9882 50 27.8024 50 25.5459H0Z" fill="#338AF3"/>
<path d="M21.7393 15.1773L18.6859 16.6136L20.3118 19.5706L16.9964 18.9364L16.5763 22.2855L14.2671 19.8223L11.9577 22.2855L11.5377 18.9364L8.22227 19.5704L9.84805 16.6135L6.79492 15.1773L9.84814 13.7413L8.22227 10.7843L11.5376 11.4185L11.9578 8.06934L14.2671 10.5326L16.5764 8.06934L16.9964 11.4185L20.3119 10.7843L18.686 13.7414L21.7393 15.1773Z" fill="#FFDA44"/>
</g>
<defs>
<clipPath id="clip0_175_385">
<rect width="50" height="50" fill="white" transform="translate(0 0.545898)"/>
</clipPath>
</defs>
</svg>
